<?xml version="1.0" encoding="utf-8"?>
<!-- Generator: Adobe Illustrator 24.3.0, SVG Export Plug-In . SVG Version: 6.00 Build 0)  -->
<svg version="1.1" id="Слой_1" xmlns="http://www.w3.org/2000/svg" xmlns:xlink="http://www.w3.org/1999/xlink" x="0px" y="0px"
	 viewBox="0 0 511 511" style="enable-background:new 0 0 511 511;" xml:space="preserve">
<style type="text/css">
	.st0{fill:#FFFFFF;}
</style>
<path class="st0" d="M175.7,373.6v71.9l-39.9-14.8l-16-187.2l56-29.6V373.6z"/>
<path class="st0" d="M335.4,213.9l-79.9,29.6l-79.9-29.6l79.8-42.2h0.1L335.4,213.9z"/>
<path class="st0" d="M335.4,293.7v79.9l-79.9,29.6l-79.9-29.6v-79.9l79.9,29.6L335.4,293.7z"/>
<path class="st0" d="M335.4,373.6v71.9l-79.9,29.6l-79.9-29.6v-71.9l79.9,29.6L335.4,373.6z"/>
<path class="st0" d="M335.4,213.9v79.9l-79.9,29.6l-79.9-29.6v-79.9l79.9,29.6L335.4,213.9z"/>
<path class="st0" d="M391.3,243.5l-16,187.2l-39.9,14.8V213.9L391.3,243.5z"/>
<path class="st0" d="M399.3,158.9l31.9,37l55.9-24.3l8,47.9l-71.9,16l-10-31.9L399.3,158.9z"/>
<path class="st0" d="M464.8,115.7l38.3,49l-15.9,6.9l-55.9,24.3l-31.9-37L362,115.7l66.8,40L464.8,115.7z"/>
<path class="st0" d="M479.1,99.7l-14.4,16l-36,40l-66.8-40l-26.6-16l39.9-63.9L479.1,99.7z"/>
<path class="st0" d="M335.4,35.9l-79.9,63.9l-79.9-63.9L335.4,35.9z"/>
<path class="st0" d="M255.5,99.7l79.9-63.9h39.9l-39.9,63.9l26.6,16l37.3,43.2l14,44.6l-22,39.9l-55.9-29.6l-79.9-42.2h-0.1
	l-79.8,42.2l-56,29.6l-22-39.9l14-44.6l37.3-43.2l26.6-16l-39.9-63.9h40L255.5,99.7z"/>
<path class="st0" d="M97.7,203.6l-10,31.9l-71.9-16l8-47.9l55.9,24.3l31.9-37L97.7,203.6z"/>
<path class="st0" d="M149,115.7l-37.3,43.2l-31.9,37l-55.9-24.3L8,164.7l38.3-49l36,40L149,115.7z"/>
<path class="st0" d="M135.7,35.9l39.9,63.9l-26.6,16l-66.8,40l-36-40l-14.4-16L135.7,35.9z"/>
<path class="st0" d="M135.7,438.6c-4.1,0-7.6-3.1-7.9-7.3l-15.9-185.5l-21.1-38.4c-2.1-3.9-0.7-8.7,3.2-10.8
	c3.8-2.1,8.7-0.7,10.8,3.2l22,39.9c0.5,1,0.9,2.1,1,3.2l16,187.2c0.4,4.4-2.9,8.3-7.3,8.6C136.2,438.6,135.9,438.6,135.7,438.6z"/>
<path class="st0" d="M82.2,163.7c-2.2,0-4.4-0.9-5.9-2.6l-50.4-56c-1.6-1.8-2.3-4.1-2-6.5c0.3-2.3,1.7-4.4,3.7-5.7L131.5,29
	c3.8-2.3,8.7-1.2,11,2.6c2.3,3.8,1.1,8.7-2.6,11l-95.7,58.9l39.6,44l87.7-52.6c3.8-2.3,8.7-1,11,2.7c2.3,3.8,1,8.7-2.7,11l-93.4,56
	C85.1,163.4,83.6,163.7,82.2,163.7z"/>
<path class="st0" d="M79.8,203.9c-1.1,0-2.2-0.2-3.2-0.7L4.8,172.1c-2.3-1-3.9-3-4.6-5.3c-0.6-2.4-0.1-4.9,1.4-6.9l38.2-49
	c2.7-3.5,7.7-4.1,11.2-1.4c3.5,2.7,4.1,7.7,1.4,11.2l-31.9,40.9l56.9,24.7l65.4-75.7c2.9-3.4,7.9-3.7,11.3-0.8
	c3.3,2.9,3.7,7.9,0.8,11.3l-69.2,80.2C84.3,202.9,82,203.9,79.8,203.9z"/>
<path class="st0" d="M87.8,243.5c-0.6,0-1.2-0.1-1.7-0.2l-71.9-16c-4.1-0.9-6.8-4.9-6.1-9.1l8-47.9c0.7-4.4,4.8-7.3,9.2-6.6
	c4.4,0.7,7.3,4.8,6.6,9.2L25,213.4l57.3,12.7l21.8-69.6c1.3-4.2,5.8-6.6,10-5.2c4.2,1.3,6.6,5.8,5.2,10l-24,76.6
	C94.3,241.3,91.2,243.5,87.8,243.5z"/>
<path class="st0" d="M375.3,438.6c-0.2,0-0.5,0-0.7,0c-4.4-0.4-7.7-4.2-7.3-8.6l16-187.2c0.1-1.1,0.4-2.2,1-3.2l22-39.9
	c2.1-3.9,7-5.3,10.8-3.2c3.9,2.1,5.3,7,3.2,10.8l-21.1,38.4l-15.9,185.5C382.9,435.5,379.4,438.6,375.3,438.6z"/>
<path class="st0" d="M428.7,163.7c-1.4,0-2.8-0.4-4.1-1.1l-93.4-56c-3.8-2.3-5-7.2-2.7-11c2.3-3.8,7.2-5,11-2.7l87.7,52.6l39.6-44
	l-95.7-58.9c-3.8-2.3-4.9-7.2-2.6-11c2.3-3.8,7.2-4.9,11-2.6l103.8,63.9c2,1.2,3.4,3.3,3.7,5.7c0.3,2.4-0.4,4.7-2,6.5l-50.4,56
	C433.1,162.8,430.9,163.7,428.7,163.7z"/>
<path class="st0" d="M431.2,203.9c-2.3,0-4.5-1-6-2.8L356,120.9c-2.9-3.3-2.5-8.4,0.8-11.3c3.3-2.9,8.4-2.5,11.3,0.8l65.4,75.7
	l56.9-24.7l-31.9-40.9c-2.7-3.5-2.1-8.5,1.4-11.2c3.5-2.7,8.5-2.1,11.2,1.4l38.2,49c1.5,1.9,2.1,4.5,1.4,6.9
	c-0.6,2.4-2.3,4.4-4.6,5.3l-71.8,31.1C433.4,203.7,432.3,203.9,431.2,203.9z"/>
<path class="st0" d="M423.2,243.5c-3.4,0-6.5-2.2-7.6-5.6l-24-76.6c-1.3-4.2,1-8.7,5.2-10c4.2-1.3,8.7,1,10,5.2l21.8,69.6l57.3-12.7
	l-6.7-40.4c-0.7-4.4,2.2-8.5,6.6-9.2c4.4-0.8,8.5,2.2,9.2,6.6l8,47.9c0.7,4.2-2,8.2-6.1,9.1l-71.9,16
	C424.4,243.4,423.8,243.5,423.2,243.5z"/>
<path class="st0" d="M375.3,43.8H135.7c-4.4,0-8-3.6-8-8c0-4.4,3.6-8,8-8h239.7c4.4,0,8,3.6,8,8C383.3,40.3,379.7,43.8,375.3,43.8z"
	/>
<path class="st0" d="M119.7,251.5c-2.9,0-5.6-1.5-7.1-4.2c-2.1-3.9-0.6-8.7,3.3-10.8l135.8-71.9c3.9-2.1,8.7-0.6,10.8,3.3
	c2.1,3.9,0.6,8.7-3.3,10.8l-135.8,71.9C122.2,251.2,121,251.5,119.7,251.5z"/>
<path class="st0" d="M391.2,251.5c-1.3,0-2.5-0.3-3.7-0.9l-135.8-71.9c-3.9-2.1-5.4-6.9-3.3-10.8c2.1-3.9,6.9-5.4,10.8-3.3
	L395,236.4c3.9,2.1,5.4,6.9,3.3,10.8C396.9,249.9,394.1,251.5,391.2,251.5z"/>
<path class="st0" d="M255.5,251.5c-0.9,0-1.9-0.2-2.8-0.5l-79.9-29.6c-4.1-1.5-6.2-6.1-4.7-10.3c1.5-4.1,6.1-6.3,10.3-4.7l79.9,29.6
	c4.1,1.5,6.2,6.1,4.7,10.3C261.8,249.5,258.7,251.5,255.5,251.5z"/>
<path class="st0" d="M255.5,251.5c-3.2,0-6.3-2-7.5-5.2c-1.5-4.1,0.6-8.7,4.7-10.3l79.9-29.6c4.1-1.5,8.7,0.6,10.3,4.7
	c1.5,4.1-0.6,8.7-4.7,10.3L258.3,251C257.4,251.3,256.4,251.5,255.5,251.5z"/>
<path class="st0" d="M255.5,331.3c-0.9,0-1.9-0.2-2.8-0.5l-79.9-29.6c-4.1-1.5-6.2-6.1-4.7-10.3c1.5-4.1,6.1-6.3,10.3-4.7l79.9,29.6
	c4.1,1.5,6.2,6.1,4.7,10.3C261.8,329.3,258.7,331.3,255.5,331.3z"/>
<path class="st0" d="M255.5,331.3c-3.2,0-6.3-2-7.5-5.2c-1.5-4.1,0.6-8.7,4.7-10.3l79.9-29.6c4.1-1.6,8.7,0.6,10.3,4.7
	c1.5,4.1-0.6,8.7-4.7,10.3l-79.9,29.6C257.4,331.2,256.4,331.3,255.5,331.3z"/>
<path class="st0" d="M255.5,411.2c-0.9,0-1.9-0.2-2.8-0.5l-79.9-29.6c-4.1-1.5-6.2-6.1-4.7-10.3c1.5-4.1,6.1-6.3,10.3-4.7l79.9,29.6
	c4.1,1.5,6.2,6.1,4.7,10.3C261.8,409.2,258.7,411.2,255.5,411.2z"/>
<path class="st0" d="M255.5,411.2c-3.2,0-6.3-2-7.5-5.2c-1.5-4.1,0.6-8.7,4.7-10.3l79.9-29.6c4.1-1.5,8.7,0.6,10.3,4.7
	c1.5,4.1-0.6,8.7-4.7,10.3l-79.9,29.6C257.4,411,256.4,411.2,255.5,411.2z"/>
<path class="st0" d="M255.5,483.1c-0.9,0-1.9-0.2-2.8-0.5l-119.8-44.4c-4.1-1.5-6.2-6.1-4.7-10.3c1.5-4.1,6.1-6.3,10.3-4.7
	l119.8,44.4c4.1,1.5,6.2,6.1,4.7,10.3C261.8,481.1,258.7,483.1,255.5,483.1z"/>
<path class="st0" d="M255.5,483.1c-3.2,0-6.3-2-7.5-5.2c-1.5-4.1,0.6-8.7,4.7-10.3l119.8-44.4c4.1-1.6,8.7,0.6,10.3,4.7
	c1.5,4.1-0.6,8.7-4.7,10.3l-119.8,44.4C257.4,482.9,256.4,483.1,255.5,483.1z"/>
<path class="st0" d="M175.6,107.7c-2.7,0-5.3-1.3-6.8-3.8l-39.9-63.9c-2.3-3.7-1.2-8.7,2.5-11c3.8-2.4,8.7-1.2,11,2.5l39.9,63.9
	c2.3,3.7,1.2,8.7-2.5,11C178.5,107.3,177,107.7,175.6,107.7z"/>
<path class="st0" d="M335.4,107.7c-1.4,0-2.9-0.4-4.2-1.2c-3.7-2.3-4.9-7.3-2.5-11l39.9-63.9c2.3-3.7,7.3-4.9,11-2.5
	c3.7,2.3,4.9,7.3,2.5,11L342.2,104C340.6,106.4,338,107.7,335.4,107.7z"/>
<path class="st0" d="M255.5,107.7c-1.7,0-3.5-0.6-5-1.7l-79.9-63.9c-3.4-2.8-4-7.8-1.2-11.2c2.8-3.4,7.8-4,11.2-1.2l79.9,63.9
	c3.4,2.8,4,7.8,1.2,11.2C260.1,106.7,257.8,107.7,255.5,107.7z"/>
<path class="st0" d="M255.5,107.7c-2.3,0-4.7-1-6.2-3c-2.8-3.5-2.2-8.5,1.2-11.2l79.9-63.9c3.5-2.8,8.5-2.2,11.2,1.2
	c2.7,3.4,2.2,8.5-1.2,11.2L260.5,106C259,107.2,257.3,107.7,255.5,107.7z"/>
<path class="st0" d="M255.5,131.7c-4.4,0-8-3.6-8-8v-24c0-4.4,3.6-8,8-8c4.4,0,8,3.6,8,8v24C263.5,128.1,259.9,131.7,255.5,131.7z"
	/>
<path class="st0" d="M175.6,453.4c-4.4,0-8-3.6-8-8V213.9c0-4.4,3.6-8,8-8c4.4,0,8,3.6,8,8v231.6
	C183.6,449.9,180.1,453.4,175.6,453.4z"/>
<path class="st0" d="M335.4,453.4c-4.4,0-8-3.6-8-8V213.9c0-4.4,3.6-8,8-8c4.4,0,8,3.6,8,8v231.6
	C343.3,449.9,339.8,453.4,335.4,453.4z"/>
</svg>
