<svg width="46" height="55" viewBox="0 0 46 55" fill="none" xmlns="http://www.w3.org/2000/svg">
<path fill-rule="evenodd" clip-rule="evenodd" d="M0.00661356 16.098C0.0069011 14.8282 0.887662 13.2694 1.97747 12.6137L21.0296 1.15264C22.1179 0.497891 23.8806 0.497891 24.971 1.15494L44.0297 12.6379C45.1184 13.2935 46.0003 14.8529 46 16.1282L45.9919 39.0179C45.9917 40.2897 45.1095 41.8545 44.0228 42.5127L24.9296 54.0736C23.8424 54.7321 22.082 54.7318 20.9931 54.0708L1.96683 42.5156C0.879899 41.8557 -0.000574815 40.292 2.81566e-07 39.0216L0.00661356 16.0983V16.098ZM4.01389 14.2364L22.9444 24.8064L40.9926 14.3747L22.9139 3.75898L4.0136 14.2364H4.01389ZM2.79296 17.6573C2.79296 18.1255 2.48672 38.3206 2.48672 38.3206C2.47694 38.9549 2.90855 39.7345 3.4549 40.0643L21.1713 50.7559L21.3344 28.4959C21.3344 28.4959 2.79325 17.1889 2.79325 17.6573H2.79296ZM24.6774 50.7076L42.1926 39.591C42.8631 39.1654 43.4069 38.1777 43.4069 37.3829V17.5438L24.6774 28.3306V50.7076Z" fill="white"/>
<path fill-rule="evenodd" clip-rule="evenodd" d="M8.59426 28.8048C7.21921 29.599 5.39615 29.0161 4.52258 27.5033C3.64929 25.9905 4.05617 24.1203 5.43123 23.3264C6.80658 22.5322 8.62963 23.115 9.50292 24.6278C10.3765 26.1406 9.96961 28.0108 8.59426 28.8048ZM17.7958 34.8433C16.4208 35.6375 14.5977 35.0546 13.7241 33.5418C12.8508 32.0291 13.2577 30.1588 14.6328 29.3649C16.0081 28.5707 17.8312 29.1536 18.7045 30.6664C19.578 32.1792 19.1712 34.0494 17.7958 34.8433ZM8.59426 39.4441C7.21921 40.2383 5.39615 39.6554 4.52258 38.1426C3.64929 36.6298 4.05617 34.7596 5.43123 33.9657C6.80658 33.1715 8.62963 33.7543 9.50292 35.2671C10.3765 36.7799 9.96961 38.6501 8.59426 39.4441ZM17.7958 45.4826C16.4208 46.2768 14.5977 45.6939 13.7241 44.1811C12.8508 42.6683 13.2577 40.7981 14.6328 40.0042C16.0081 39.21 17.8312 39.7929 18.7045 41.3057C19.578 42.8184 19.1712 44.6887 17.7958 45.4826ZM40.293 23.0388C38.9177 22.2446 37.0949 22.8275 36.2213 24.3403C35.3481 25.8531 35.7547 27.7233 37.13 28.5172C38.5053 29.3114 40.3284 28.7286 41.2017 27.2158C42.0753 25.703 41.6684 23.8328 40.293 23.0388V23.0388ZM35.6238 31.3778C34.2488 30.5835 32.4257 31.1664 31.5521 32.6792C30.6788 34.192 31.0857 36.0622 32.4608 36.8561C33.8361 37.6503 35.6592 37.0675 36.5325 35.5547C37.406 34.0419 36.9992 32.1717 35.6238 31.3778ZM30.7355 39.4291C29.3604 38.6349 27.5374 39.2178 26.6638 40.7306C25.7905 42.2433 26.1974 44.1136 27.5725 44.9075C28.9478 45.7017 30.7709 45.1188 31.6441 43.606C32.5177 42.0932 32.1108 40.223 30.7355 39.4291ZM23.1845 10.6067C21.3583 10.6067 19.8777 12.0229 19.8777 13.7697C19.8777 15.5166 21.3583 16.9328 23.1845 16.9328C25.0107 16.9328 26.4913 15.5166 26.4913 13.7697C26.4913 12.0229 25.0107 10.6067 23.1845 10.6067Z" fill="white"/>
</svg>
