<?xml version="1.0"?>
<svg xmlns="http://www.w3.org/2000/svg" xmlns:xlink="http://www.w3.org/1999/xlink" xmlns:svgjs="http://svgjs.com/svgjs" version="1.1" width="512" height="512" x="0" y="0" viewBox="0 0 184.58 184.58" style="enable-background:new 0 0 512 512" xml:space="preserve" class=""><g>
<g xmlns="http://www.w3.org/2000/svg">
	<path d="M182.004,146.234L108.745,19.345c-3.435-5.949-9.586-9.5-16.455-9.5s-13.021,3.551-16.455,9.5L2.576,146.234   c-3.435,5.948-3.435,13.051,0,19c3.435,5.949,9.586,9.5,16.455,9.5h146.518c6.869,0,13.021-3.552,16.455-9.5   C185.438,159.285,185.438,152.182,182.004,146.234z M169.88,158.234c-0.435,0.751-1.725,2.5-4.331,2.5H19.031   c-2.606,0-3.896-1.749-4.331-2.5c-0.434-0.752-1.302-2.744,0.001-5L87.96,26.345c1.303-2.256,3.462-2.5,4.33-2.5   s3.027,0.244,4.33,2.5l73.259,126.889C171.181,155.49,170.313,157.482,169.88,158.234z" fill="#ffffff" data-original="#000000" style="" class=""/>
</g>
<g xmlns="http://www.w3.org/2000/svg">
</g>
<g xmlns="http://www.w3.org/2000/svg">
</g>
<g xmlns="http://www.w3.org/2000/svg">
</g>
<g xmlns="http://www.w3.org/2000/svg">
</g>
<g xmlns="http://www.w3.org/2000/svg">
</g>
<g xmlns="http://www.w3.org/2000/svg">
</g>
<g xmlns="http://www.w3.org/2000/svg">
</g>
<g xmlns="http://www.w3.org/2000/svg">
</g>
<g xmlns="http://www.w3.org/2000/svg">
</g>
<g xmlns="http://www.w3.org/2000/svg">
</g>
<g xmlns="http://www.w3.org/2000/svg">
</g>
<g xmlns="http://www.w3.org/2000/svg">
</g>
<g xmlns="http://www.w3.org/2000/svg">
</g>
<g xmlns="http://www.w3.org/2000/svg">
</g>
<g xmlns="http://www.w3.org/2000/svg">
</g>
</g></svg>
