<?xml version="1.0" encoding="utf-8"?>
<!-- Generator: Adobe Illustrator 24.3.0, SVG Export Plug-In . SVG Version: 6.00 Build 0)  -->
<svg version="1.1" id="Capa_1" xmlns="http://www.w3.org/2000/svg" xmlns:xlink="http://www.w3.org/1999/xlink" x="0px" y="0px"
	 viewBox="0 0 460 460" style="enable-background:new 0 0 460 460;" xml:space="preserve">
<style type="text/css">
	.st0{fill:#FFFFFF;}
</style>
<g>
	<ellipse class="st0" cx="222.8" cy="74.5" rx="41.8" ry="41.8"/>
	<path class="st0" d="M383.6,334.9c-62-77.7-57.5-72.4-60.4-74.7l-28.6-116.5l82.2-111.6c6.6-9,4.7-21.6-4.3-28.2
		s-21.6-4.7-28.2,4.3L261.2,121c-1.2,0.2-50.7,12.3-53.6,13.4L105.7,30.7c-7.8-7.9-20.6-8.1-28.5-0.3S69.2,51,77,59l115.7,117.8
		l15.2,61.8l0,0l16.8,68.4l-9.3,33l-81.5-14.4c-13.1-2.3-25.7,6.4-28,19.6s6.4,25.7,19.6,28c111.1,19.7,104.2,18.6,107.2,18.6
		c10.6,0,20.3-7.1,23.3-17.6c23.1-81.8,21.7-76.1,22-79.2l10-2.4c1,1.5-3.1-3.8,45.3,56.8L272.5,420c-8.7,10.1-7.6,25.4,2.5,34.1
		s25.4,7.6,34.1-2.5l73.9-85.8C390.6,357,390.8,344,383.6,334.9z"/>
</g>
</svg>
