<?xml version="1.0" encoding="utf-8"?>
<!-- Generator: Adobe Illustrator 24.3.0, SVG Export Plug-In . SVG Version: 6.00 Build 0)  -->
<svg version="1.1" id="Слой_1" xmlns="http://www.w3.org/2000/svg" xmlns:xlink="http://www.w3.org/1999/xlink" x="0px" y="0px"
	 viewBox="0 0 480 480" style="enable-background:new 0 0 480 480;" xml:space="preserve">
<style type="text/css">
	.st0{fill:#FFFFFF;}
</style>
<path class="st0" d="M240,213.5l-16,176l-32,48v32h184c8.8,0,16-7.2,16-16s-7.2-16-16-16h-16l-64-32L339.2,103L240,213.5z"/>
<path class="st0" d="M245,449.5c0-11-9-20-20-20h-27.7l-5.3,8v32h33C236.1,469.5,245,460.6,245,449.5z"/>
<path class="st0" d="M320,5.5l27,81.2c3.1,9.4,1.8,19.7-3.7,27.9L176,365.5l16,72h24c8.8,0,16,7.2,16,16s-7.2,16-16,16h-68.2
	c-12.1,0-23.2-6.8-28.6-17.7l-35.8-71.7c-2.2-4.4-3.3-9.2-3.3-14.1v-5.8c0-11,7.5-20.6,18.2-23.3l13.8-3.5l50.3-125.6
	c9.1-22.8,20.9-44.5,35-64.7L232,93.5l-32-80L320,5.5z"/>
<path class="st0" d="M330.1,167l5.9-41.5L234.1,278.4l-3.3,36.6L330.1,167z"/>
<path class="st0" d="M183.7,130.3l-0.3-25.8l-16,0.2l0.2,19.5l-18.9,4.7c-3.6,0.9-6.1,4.2-6.1,7.9l0.3,19.4l-18.9,4.7
	c-3.7,0.9-6.3,4.3-6.1,8.2l1,20l-16.2,11.7c-3.1,2.2-4.2,6.4-2.6,9.8l8.1,17.6L92.9,240c-3,2.3-4,6.3-2.4,9.7l8.1,17.6l-15.3,11.8
	l9.8,12.7l20.3-15.7c3-2.3,3.9-6.3,2.4-9.7l-8.1-17.6l15.3-11.8c2.9-2.3,3.9-6.3,2.4-9.7l-8-17.4l14.4-10.4c2.2-1.6,3.5-4.2,3.3-6.9
	l-0.9-17.8l18.6-4.6c3.6-0.9,6.1-4.2,6.1-7.9l-0.2-19.4l18.9-4.7C181.2,137.2,183.7,134,183.7,130.3z"/>
<path class="st0" d="M330.7,332.4l2.3-16l15.8,2.3l-2.3,16L330.7,332.4z"/>
<path class="st0" d="M335.2,300.4l20.6-144l15.8,2.3l-20.6,144L335.2,300.4z"/>
<path class="st0" d="M408,453.5c0-13.3-10.7-24-24-24h-22.1L304.7,401l38.9-272.5l6.3-9.5c6.9-10.3,8.6-23.1,4.7-34.8L327.6,3
	l-15.2,5.1l27.1,81.2c2.4,7,1.3,14.7-2.8,20.9l-167.3,251c-1.2,1.8-1.6,4-1.2,6.2l16,72c0.8,3.7,4.1,6.3,7.8,6.3h24c4.4,0,8,3.6,8,8
	s-3.6,8-8,8h-68.2c-9.1,0-17.4-5.1-21.5-13.3l-35.8-71.7c-1.6-3.3-2.5-6.9-2.5-10.5v-5.8c0-7.4,5-13.8,12.1-15.5l13.8-3.4
	c2.5-0.6,4.5-2.4,5.5-4.8l50.2-125.6c8.9-22.3,20.4-43.4,34.1-63l34.8-49.7c1.5-2.2,1.9-5,0.9-7.6l-32-80l-14.9,5.9l30.4,76
	l-32.3,46.2c-14.4,20.6-26.5,42.9-35.8,66.3l-48.7,121.8l-9.9,2.5C82,332.8,72,345.6,72,360.3v5.8c0,6.1,1.4,12.2,4.2,17.7
	l35.8,71.7c1.1,2.1,2.4,4.2,3.9,6.1H32v16h448v-16h-73.5C407.5,459,408,456.3,408,453.5z M223.3,309l-7.1,77.7l-20.5,30.8
	l-11.2-50.4L223.3,309z M238.5,461.5c0.9-2.6,1.4-5.3,1.5-8c0-13.3-10.7-24-24-24h-9.1l23.7-35.6c0.8-1.1,1.2-2.4,1.3-3.7l9.9-109.1
	l81.2-121.8l-35.1,245.1c-0.5,3.4,1.3,6.8,4.3,8.3l64,32c1.1,0.6,2.3,0.8,3.6,0.8h24c4.4,0,8,3.6,8,8s-3.6,8-8,8H238.5z"/>
<path class="st0" d="M0,461.5h32v16H0V461.5z"/>
</svg>
