<?xml version="1.0" encoding="UTF-8"?>
<svg xmlns="http://www.w3.org/2000/svg" xmlns:xlink="http://www.w3.org/1999/xlink" viewBox="0 0 128 128" width="128px" height="128px">
<g id="surface1266204">
<path style=" stroke:none;fill-rule:nonzero;fill:rgb(10.196079%,12.54902%,17.254902%);fill-opacity:1;" d="M 64 8.535156 C 47.554688 8.535156 34.132812 21.953125 34.132812 38.398438 L 34.132812 46.933594 L 25.601562 46.933594 C 20.886719 46.933594 17.066406 50.753906 17.066406 55.464844 L 17.066406 106.667969 C 17.066406 111.382812 20.886719 115.199219 25.601562 115.199219 L 102.398438 115.199219 C 107.113281 115.199219 110.933594 111.382812 110.933594 106.667969 L 110.933594 55.464844 C 110.933594 50.753906 107.113281 46.933594 102.398438 46.933594 L 93.867188 46.933594 L 93.867188 38.398438 C 93.867188 22.492188 81.222656 9.679688 65.515625 8.839844 C 65.035156 8.648438 64.519531 8.542969 64 8.535156 Z M 64 17.066406 C 75.835938 17.066406 85.332031 26.566406 85.332031 38.398438 L 85.332031 46.933594 L 42.667969 46.933594 L 42.667969 38.398438 C 42.667969 26.566406 52.164062 17.066406 64 17.066406 Z M 64 17.066406 "/>
</g>
</svg>
