<?xml version="1.0" encoding="utf-8"?>
<!-- Generator: Adobe Illustrator 24.3.0, SVG Export Plug-In . SVG Version: 6.00 Build 0)  -->
<svg version="1.1" id="Слой_1" xmlns="http://www.w3.org/2000/svg" xmlns:xlink="http://www.w3.org/1999/xlink" x="0px" y="0px"
	 viewBox="0 0 512 512" style="enable-background:new 0 0 512 512;" xml:space="preserve">
<style type="text/css">
	.st0{fill:#FFFFFF;}
</style>
<path class="st0" d="M114.9,325.5l-30.9,30.9l-58.2-58.2c-8.5-8.5-8.5-22.3,0-30.9c8.5-8.5,22.3-8.5,30.9,0L114.9,325.5z"/>
<path class="st0" d="M35.7,261.7c-3.6,1-7,2.8-9.8,5.6c-8.5,8.5-8.5,22.3,0,30.9l58.2,58.2l15.4-15.4l-58.2-58.2
	C35.6,277.1,33.7,269,35.7,261.7z"/>
<path class="st0" d="M84,356.4l30.9-30.9l84.1,84.1l-30.9,30.9L84,356.4z"/>
<path class="st0" d="M84,356.4l15.4-15.4l84.1,84.1l-15.4,15.4L84,356.4z"/>
<path class="st0" d="M141.9,325.6l-57.7,57.7c-1.8,1.8-4.6,1.8-6.4,0l-20.6-20.6c-1.8-1.8-1.8-4.6,0-6.4l57.7-57.7
	c1.8-1.8,4.6-1.8,6.4,0l20.6,20.6C143.6,321,143.6,323.8,141.9,325.6z"/>
<path class="st0" d="M99,362.1l-20.6-20.6c-1.8-1.8-1.8-4.6,0-6.4l-21.2,21.2c-1.8,1.8-1.8,4.6,0,6.4l20.6,20.6
	c1.8,1.8,4.6,1.8,6.4,0l21.2-21.2C103.6,363.9,100.7,363.9,99,362.1z"/>
<path class="st0" d="M396.1,325.5l30.9,30.9l58.2-58.2c8.5-8.5,8.5-22.3,0-30.9c-8.5-8.5-22.3-8.5-30.9,0L396.1,325.5z"/>
<path class="st0" d="M475.3,261.7c3.6,1,7,2.8,9.8,5.6c8.5,8.5,8.5,22.3,0,30.9l-58.2,58.2l-15.4-15.4l58.2-58.2
	C475.4,277.1,477.3,269,475.3,261.7z"/>
<path class="st0" d="M342.9,440.5L312,409.6l84.1-84.1l30.9,30.9L342.9,440.5z"/>
<path class="st0" d="M327.4,425l84.1-84.1l15.4,15.4l-84.1,84.1L327.4,425z"/>
<path class="st0" d="M369.1,325.6l57.7,57.7c1.8,1.8,4.6,1.8,6.4,0l20.6-20.6c1.8-1.8,1.8-4.6,0-6.4l-57.7-57.7
	c-1.8-1.8-4.6-1.8-6.4,0l-20.6,20.6C367.4,321,367.4,323.8,369.1,325.6z"/>
<path class="st0" d="M412,362.1l20.6-20.6c1.8-1.8,1.8-4.6,0-6.4l21.2,21.2c1.8,1.8,1.8,4.6,0,6.4l-20.6,20.6
	c-1.8,1.8-4.6,1.8-6.4,0l-21.2-21.2C407.4,363.9,410.3,363.9,412,362.1z"/>
<path class="st0" d="M89,504.5c0-92,74.5-166.5,166.5-166.5S422,412.5,422,504.5H89z"/>
<path class="st0" d="M422,504.5H148.1L306.6,346C373.6,367.5,422,430.4,422,504.5z"/>
<path class="st0" d="M203.5,504.5h-55.4L306.6,346c13.4,4.3,26.1,10.3,37.7,17.7L203.5,504.5z"/>
<path class="st0" d="M89,504.5h273.9L204.4,346C137.5,367.5,89,430.4,89,504.5z"/>
<path class="st0" d="M271.1,338.7c-5.1-0.5-10.4-0.7-15.6-0.7C163.5,338,89,412.5,89,504.5h31.3
	C120.3,417.8,186.5,346.6,271.1,338.7z"/>
<path class="st0" d="M307.5,504.5h55.4L204.4,346c-13.4,4.3-26.1,10.3-37.7,17.7L307.5,504.5z"/>
<path class="st0" d="M213.4,355l-9-9c-13.4,4.3-26.1,10.3-37.7,17.7l13.2,13.2C190.1,368.3,201.3,360.9,213.4,355z"/>
<path class="st0" d="M434.4,186.4c0,98.8-80.1,178.9-178.9,178.9S76.6,285.2,76.6,186.4c0-98.8,80.1-178.9,178.9-178.9
	S434.4,87.6,434.4,186.4z"/>
<path class="st0" d="M106.6,186.4c0-93.7,72.1-170.6,163.9-178.3c-4.9-0.4-9.9-0.6-15-0.6c-98.8,0-178.9,80.1-178.9,178.9
	c0,98.8,80.1,178.9,178.9,178.9c5.1,0,10.1-0.2,15-0.6C178.7,357,106.6,280.1,106.6,186.4z"/>
<path class="st0" d="M76.6,186.4c0,4.4,0.2,8.7,0.5,13c0.7,0.1,1.4,0.1,2.1,0.1h352.7c0.7,0,1.4,0,2.1-0.1c0.3-4.3,0.5-8.6,0.5-13
	c0-13.6-1.5-26.9-4.4-39.6H81C78.1,159.5,76.6,172.8,76.6,186.4z"/>
<path class="st0" d="M321.1,262.5l-22.3-9.3c-27.7-11.5-58.8-11.5-86.5,0l-22.3,9.3c-26.7,11.1-56.1-8.5-56.1-37.4
	c0-22.4,18.1-40.5,40.5-40.5h162.3c22.4,0,40.5,18.1,40.5,40.5C377.2,254,347.8,273.6,321.1,262.5z"/>
<path class="st0" d="M336.6,184.5H174.4c-22.4,0-40.5,18.1-40.5,40.5c0,28.7,29,48.2,55.5,37.6c-14.6-5.9-25.5-20-25.5-37.6
	c0-0.1,0-0.2,0-0.3c0.1-14,11.7-25.2,25.7-25.2h178.5C360.7,190.4,349.3,184.5,336.6,184.5z"/>
<path class="st0" d="M79.2,184.5h352.7c7,0,12.5-5.9,11.9-12.9c-1.6-19.5-6.3-38.1-13.7-55.4c-1.9-4.4-6.2-7.3-11-7.3H91.9
	c-4.8,0-9.1,2.9-11,7.3c-7.4,17.2-12.1,35.9-13.7,55.4C66.7,178.6,72.2,184.5,79.2,184.5z"/>
<path class="st0" d="M97.2,171.6c1.6-19.5,6.3-38.1,13.7-55.4c1.9-4.4,6.2-7.3,11-7.3h-30c-4.8,0-9.1,2.9-11,7.3
	c-7.4,17.2-12.1,35.9-13.7,55.4c-0.6,6.9,5,12.9,11.9,12.9h30C102.2,184.5,96.7,178.6,97.2,171.6z"/>
<path class="st0" d="M319.2,203.8c-4.1,0-7.5,3.4-7.5,7.5v11.4c0,4.1,3.4,7.5,7.5,7.5c4.1,0,7.5-3.4,7.5-7.5v-11.4
	C326.7,207.1,323.3,203.8,319.2,203.8z"/>
<path class="st0" d="M191.8,203.8c-4.1,0-7.5,3.4-7.5,7.5v11.4c0,4.1,3.4,7.5,7.5,7.5c4.1,0,7.5-3.4,7.5-7.5v-11.4
	C199.3,207.1,196,203.8,191.8,203.8z"/>
<path class="st0" d="M490.4,262c-5.5-5.5-12.9-8.6-20.7-8.6s-15.2,3.1-20.7,8.6l-39.3,39.3l-4.3-4.3c22.4-30.3,35.9-67.5,36.5-107.9
	c1.6-1,3.1-2.1,4.3-3.5c3.7-4,5.5-9.3,5.1-14.7c-1.6-20-6.4-39.4-14.2-57.7c-2.7-6.4-8.7-10.8-15.5-11.7
	c-15-29.4-37.6-54.3-65.5-72.2C326.1,10.2,291.3,0,255.5,0C219.7,0,184.9,10.2,155,29.4c-27.9,17.9-50.4,42.8-65.5,72.2
	c-6.8,0.8-12.7,5.2-15.5,11.7c-7.8,18.3-12.6,37.8-14.2,57.7c-0.4,5.4,1.4,10.7,5.1,14.7c1.3,1.4,2.7,2.5,4.3,3.5
	c0.6,40.3,14.1,77.6,36.5,107.9l-4.3,4.3L62.1,262c-5.5-5.5-12.9-8.6-20.7-8.6c-7.8,0-15.2,3.1-20.7,8.6S12,274.9,12,282.8
	c0,7.8,3.1,15.2,8.6,20.7l9.6,9.6c0,0,0,0,0,0c0,0,0,0,0,0l17.7,17.7h0v0l12,12l-8.1,8.1c-4.7,4.7-4.7,12.3,0,17l20.6,20.6
	c2.3,2.3,5.4,3.5,8.5,3.5s6.2-1.2,8.5-3.5l8.1-8.1l19.1,19.1c-22.4,29.7-35.2,66.3-35.2,104.9c0,4.1,3.4,7.5,7.5,7.5h333
	c4.1,0,7.5-3.4,7.5-7.5c0-38.5-12.8-75.2-35.2-104.9l19.1-19.1l8.1,8.1c2.3,2.3,5.4,3.5,8.5,3.5s6.2-1.2,8.5-3.5l20.6-20.6
	c4.7-4.7,4.7-12.3,0-17l-8.1-8.1l12-12v0h0l17.7-17.7c0,0,0,0,0,0c0,0,0,0,0,0l9.6-9.6c5.5-5.5,8.6-12.9,8.6-20.7
	C499,274.9,495.9,267.6,490.4,262z M75.8,175.6c-0.5-0.5-1.3-1.7-1.1-3.3c1.5-18.4,5.9-36.2,13.1-53.1c0.7-1.6,2.3-2.7,4.1-2.7
	h238.4c4.1,0,7.5-3.4,7.5-7.5s-3.4-7.5-7.5-7.5H106.6C136.9,48.6,194.1,15,255.5,15s118.6,33.6,148.9,86.5h-46.1
	c-4.1,0-7.5,3.4-7.5,7.5s3.4,7.5,7.5,7.5h58.5c0,0,0,0,0,0c0,0,0,0,0,0h2.3c1.8,0,3.4,1.1,4.1,2.7c7.2,16.9,11.6,34.7,13.1,53.1
	c0.1,1.6-0.7,2.8-1.1,3.3c-0.5,0.5-1.6,1.4-3.3,1.4H79.2C77.4,177,76.3,176.1,75.8,175.6z M369.7,225c0,11.2-5.4,21.3-14.7,27.5
	c-9.3,6.2-20.7,7.3-31,3l-22.3-9.3c-29.3-12.2-62.9-12.2-92.3,0l-22.3,9.3c-10.4,4.3-21.7,3.2-31-3c-9.3-6.2-14.7-16.3-14.7-27.5
	c0-18.2,14.8-33,33-33h162.3C354.8,192,369.7,206.8,369.7,225z M84.2,192h55.3c-8.2,8.6-13.2,20.2-13.2,33c0,16.1,8,31,21.4,40
	s30.3,10.6,45.1,4.4l22.3-9.3c25.6-10.7,55.1-10.7,80.7,0l22.3,9.3c6,2.5,12.2,3.7,18.5,3.7c9.3,0,18.6-2.7,26.6-8.1
	c13.4-8.9,21.4-23.9,21.4-40c0-12.8-5-24.4-13.2-33h55.3c-3,91.9-78.7,165.8-171.3,165.8C162.9,357.8,87.2,283.9,84.2,192z M372,339
	l-20.4,20.4c-3.7-2.5-7.5-4.8-11.5-7c9.8-5,19.1-10.9,27.8-17.5L372,339z M294.5,368.7c9.6-2.1,19-4.9,28-8.4
	c3.3,1.5,6.5,3.2,9.6,4.9l-49,49l-17.1-17.1L294.5,368.7z M255.5,386.4l-14.2-14.2c4.7,0.4,9.4,0.5,14.2,0.5c4.8,0,9.5-0.2,14.2-0.5
	L255.5,386.4z M170.9,352.4c-3.9,2.2-7.7,4.5-11.5,7L139,339l4.1-4.1C151.8,341.6,161.1,347.4,170.9,352.4z M73.9,304.8
	c-2.9-2.9-7.7-2.9-10.6,0l-10.1,10.1l-7.1-7.1l10.1-10.1c2.9-2.9,2.9-7.7,0-10.6s-7.7-2.9-10.6,0l-10.1,10.1l-4.3-4.3
	c-2.7-2.7-4.2-6.3-4.2-10.1c0-3.8,1.5-7.4,4.2-10.1c2.7-2.7,6.3-4.2,10.1-4.2c3.8,0,7.4,1.5,10.1,4.2L90.8,312l-20.3,20.3l-6.7-6.7
	l10.1-10.1C76.8,312.4,76.8,307.7,73.9,304.8z M81,375.9l-16.4-16.4l50.6-50.6c5.1,5.8,10.6,11.4,16.4,16.5L81,375.9z M108.2,369.9
	l20.3-20.3l18.7,18.7c-7.5,6-14.5,12.6-20.9,19.7L108.2,369.9z M310.6,497l-79.4-79.4c-2.9-2.9-7.7-2.9-10.6,0
	c-2.9,2.9-2.9,7.7,0,10.6l68.8,68.8H96.7c2.4-50,28.3-95.8,69-123.7l36.9,36.9c1.5,1.5,3.4,2.2,5.3,2.2s3.8-0.7,5.3-2.2
	c2.9-2.9,2.9-7.7,0-10.6l-34.3-34.3c3.1-1.7,6.4-3.4,9.6-4.9c9,3.5,18.4,6.3,28,8.4L344.8,497H310.6z M414.3,497H366l-72.2-72.2
	l51.5-51.5C386,401.2,412,447,414.3,497z M384.7,388c-6.4-7.1-13.3-13.7-20.9-19.7l18.7-18.7l20.3,20.3L384.7,388z M430,375.9
	l-50.5-50.5c5.8-5.2,11.3-10.7,16.4-16.5l50.6,50.6L430,375.9z M479.8,292.9l-4.3,4.3l-10.1-10.1c-2.9-2.9-7.7-2.9-10.6,0
	s-2.9,7.7,0,10.6l10.1,10.1l-7.1,7.1l-10.1-10.1c-2.9-2.9-7.7-2.9-10.6,0c-2.9,2.9-2.9,7.7,0,10.6l10.1,10.1l-6.7,6.7L420.2,312
	l39.3-39.3c2.7-2.7,6.3-4.2,10.1-4.2c3.8,0,7.4,1.5,10.1,4.2c2.7,2.7,4.2,6.3,4.2,10.1C484,286.6,482.5,290.2,479.8,292.9z"/>
</svg>
