<svg id="Layer_1" enable-background="new 0 0 512 512" height="512" viewBox="0 0 512 512" width="512" xmlns="http://www.w3.org/2000/svg"><path d="m478.8 242c7.7 0 14 6.3 14 14s-6.3 14-14 14h-25.2c-8.4 0-15.6 6.2-16.8 14.6-4 29-15 56.6-32 80.4-4.8 6.7-4.1 15.9 1.7 21.7l17 17c5.4 5.5 5.4 14.4-.1 19.8-5.4 5.4-14.2 5.4-19.6 0l-16.3-16.3c-5.9-5.9-15.3-6.7-22-1.7-23.8 17.9-51.6 29.7-81.1 34.3-8.2 1.3-14.3 8.4-14.2 16.7v22.4c0 7.7-6.3 14-14 14s-14-6.3-14-14v-22.4c0-8.3-6-15.4-14.2-16.7-29.4-4.6-57.3-16.4-81.1-34.3-6.7-5-16.1-4.3-22 1.7l-16.3 16.3c-5.5 5.4-14.4 5.4-19.8-.1-5.4-5.4-5.4-14.2 0-19.6l17-17c5.8-5.8 6.5-15 1.7-21.7-17-23.8-28-51.4-32-80.4-1.5-8.5-8.6-14.7-17-14.7h-25.3c-7.7 0-14-6.3-14-14s6.3-14 14-14h26.3c8.3 0 15.3-6 16.7-14.1 4.9-28.2 16.5-54.9 33.7-77.8 5-6.7 4.3-16.1-1.7-22l-19.7-19.7c-5.4-5.5-5.4-14.4.1-19.8 5.4-5.4 14.2-5.4 19.6 0l20.2 20.2c5.8 5.8 15 6.6 21.7 1.9 23-16.4 49.4-27.2 77.3-31.6 8.3-1.3 14.4-8.4 14.5-16.7v-29c0-7.7 6.3-14 14-14s14 6.3 14 14v29c0 8.4 6.2 15.5 14.5 16.7 27.9 4.4 54.4 15.2 77.3 31.6 6.7 4.8 15.9 4 21.7-1.9l20.2-20.2c5.5-5.4 14.4-5.4 19.8.1 5.4 5.4 5.4 14.2 0 19.6l-19.6 19.7c-5.9 5.9-6.6 15.3-1.6 22 17.2 22.9 28.8 49.6 33.7 77.8 1.4 8.1 8.4 14.1 16.7 14.1h26.2z" fill="#4ca987"/><g fill="#5fcda4"><path d="m356 323.1c9.4 0 17 7.6 17 17s-7.6 17-17 17-17-7.6-17-17 7.6-17 17-17z"/><circle cx="378" cy="263" r="29"/><circle cx="329" cy="150.4" r="22.5"/><circle cx="273.5" cy="208.5" r="21.5"/><circle cx="294.1" cy="289.1" r="10.1"/><circle cx="274.5" cy="386.5" r="33.5"/><circle cx="188.7" cy="361" r="20.5"/><circle cx="124.2" cy="301.5" r="14.5"/><path d="m202.9 237c19.9 0 36 16.1 36 36s-16.1 36-36 36-36-16.1-36-36 16.1-36 36-36z"/><circle cx="163.7" cy="175.4" r="25"/></g><path d="m63.2 242h26.3c8.3 0 15.3-6 16.7-14.1 4.9-28.2 16.5-54.9 33.7-77.8 5-6.7 4.3-16.1-1.6-22l-19.7-19.7c-2.6-2.6-4.1-6.2-4.1-9.9 0-1.1.1-2.3.4-3.4l-6.5-6.5c-5.4-5.5-14.3-5.6-19.8-.1-5.5 5.4-5.6 14.3-.1 19.8 0 0 .1.1.1.1l19.7 19.7c5.9 5.9 6.6 15.3 1.7 22-17.2 22.9-28.8 49.6-33.7 77.8-1.5 8.1-8.6 14.1-16.8 14.1h-26.3c-7.7 0-14 6.3-14 14s6.3 14 14 14h25.2c8.4 0 15.6 6.2 16.7 14.6 4 29 15 56.6 32 80.4 4.8 6.7 4.1 15.9-1.7 21.7l-17 17c-5.5 5.4-5.6 14.3-.1 19.8s14.3 5.6 19.8.1c0 0 .1-.1.1-.1l6.5-6.5c-1.2-4.8.2-9.8 3.7-13.3l17-17c5.8-5.8 6.5-15 1.7-21.7-17-23.8-28-51.4-32-80.4-1.2-8.4-8.3-14.6-16.8-14.6h-25.1c-7.7 0-14-6.3-14-14s6.3-14 14-14z" fill="#3d8467"/><path d="m180.2 110.6c23-16.4 49.4-27.2 77.3-31.6 6.2-1 11.3-5.2 13.5-11.1-.7-1.8-1-3.7-1-5.7v-29c0-7.7-6.3-14-14-14s-14 6.3-14 14v29c0 8.4-6.2 15.5-14.5 16.7-25.4 4-49.7 13.4-71.3 27.5l2.3 2.3c5.8 5.9 15 6.7 21.7 1.9z" fill="#3d8467"/><path d="m257.8 439.7c-29.4-4.6-57.3-16.4-81.1-34.3-6.7-5-16.1-4.3-22 1.7l-2.4 2.4c22.5 15.6 48.3 26 75.4 30.2 8.2 1.3 14.3 8.4 14.2 16.7v22.4c0 7.7 6.3 14 14 14s14-6.3 14-14v-22.4c0-1.9.3-3.9 1-5.7-2-5.8-7-10-13.1-11z" fill="#3d8467"/><g fill="#f4f8fc"><path d="m133.2 149.5c-2.5-2.1-6.3-1.7-8.4.9-24 29.8-37.2 67.3-37.2 105.6 0 3.3 2.7 6 6 6 3.4 0 6-2.7 5.9-6 0-35.6 12.3-70.4 34.6-98.1 2.1-2.5 1.6-6.3-.9-8.4z"/><path d="m155.4 128.4c-2.2-2.5-6-2.8-8.5-.7-2.4 2-4.7 4.1-7 6.3-2.4 2.3-2.5 6.1-.2 8.5 1.1 1.3 2.7 1.9 4.3 1.9 1.5 0 3-.5 4.2-1.6 2.1-2 4.3-4 6.5-5.9 2.5-2.2 2.8-6 .7-8.5z"/></g></svg>