<?xml version="1.0" encoding="utf-8"?>
<!-- Generator: Adobe Illustrator 24.1.3, SVG Export Plug-In . SVG Version: 6.00 Build 0)  -->
<svg version="1.1" id="Слой_1" xmlns="http://www.w3.org/2000/svg" xmlns:xlink="http://www.w3.org/1999/xlink" x="0px" y="0px"
	 viewBox="0 0 612 792" style="enable-background:new 0 0 612 792;" xml:space="preserve">
<style type="text/css">
	.st0{fill:#5FC3A0;}
	.st1{fill:#FFFFFF;}
</style>
<g>
	<path class="st0" d="M321.3,91.3c18.1,7.7,29.9,23,43.3,36.2c18.5,18.2,36.8,36.7,55.2,55.1c1.6,1.6,3.1,3.3,5.4,5.7
		c-2.8,0.2-4.7,0.4-6.7,0.4c-16.6,0-33.1,0.2-49.7-0.1c-5-0.1-7.8,1.4-10.1,6c-13.4,26.9-27.1,53.7-40.8,80.4
		c-3.6,7.1-7.5,14-11.8,22c-4-7.4-7.6-13.6-10.9-20.1c-13.6-26.8-27.1-53.6-40.6-80.5c-2.6-5.2-5.8-8.1-12.6-7.9
		c-17.9,0.6-35.8,0.2-54.9,0.2c1.6-2,2.5-3.4,3.6-4.6c26.6-26.7,53.1-53.6,80.2-79.8c5.8-5.7,14.1-8.8,21.2-13.1
		C302,91.3,311.7,91.3,321.3,91.3z"/>
	<path class="st0" d="M395.2,425.9c4,16.2,7.5,30.5,11,44.8c6.4,26.9,12.7,53.8,19,80.7c2.9,12.2,5.7,24.4,8.7,36.7
		c1,3.9,0,6.8-3,9.7c-29.1,28.8-57.9,57.9-87,86.8c-21.6,21.5-54,21.5-75.7,0c-29.1-28.8-57.9-57.9-87-86.8c-3-3-3.9-5.8-2.9-9.8
		c10.7-44.9,21.4-89.8,32.1-134.6c2-8.6,4.1-17.1,6.4-27c5.9,12.1,11.1,22.8,16.3,33.4c17.1,34.8,34.3,69.5,51.4,104.3
		c5.8,11.7,11.3,23.6,17.1,35.3c0.9,1.8,3,4.2,4.5,4.2c1.5,0,3.5-2.5,4.5-4.3c26.8-54.3,53.5-108.6,80.1-163
		C392.2,433.5,393.3,430.5,395.2,425.9z"/>
	<path class="st0" d="M551.3,477.2c-16-70.2-31.7-139.3-47.8-210.4c3.2,3,4.9,4.4,6.5,6c28.6,28.6,57.3,57.2,85.9,85.9
		c19.8,19.8,20.9,51.5,1.8,72.2c-13.6,14.7-28.2,28.4-42.3,42.6C554.3,474.3,553.3,475.2,551.3,477.2z"/>
	<path class="st0" d="M108.8,266.9c-16.2,71-31.9,140.1-48.1,211.5c-18.3-19.7-36.3-37.1-51.8-56.5c-13.3-16.6-9.6-45.8,5.5-61
		c30.1-30.4,60.4-60.5,90.7-90.8C105.7,269.5,106.4,268.9,108.8,266.9z"/>
</g>
<g>
	<path class="st1" d="M154.5,222.2c24.9,0,49.7,0,74.6,0c5.8,11.4,11.6,22.9,17.4,34.3c18.5,36.4,36.9,72.8,55.4,109.1
		c0.9,1.8,2.9,3.1,4.4,4.7c1.5-1.5,3.5-2.8,4.4-4.6c6.9-13.2,13.5-26.6,20.3-39.9c17.5-34.5,35.1-69.1,52.6-103.6
		c24.9,0,49.7,0,74.5,0c3.1,12.7,6.3,25.4,9.1,38.1c13.4,59.5,26.7,119.1,40.1,178.6c8.5,37.8,17.3,75.5,26,113.2
		c1.3,5.6,2.2,11.3,3.3,17.5c-22.7,0-44.3-0.2-65.9,0.1c-5.4,0.1-7-2.2-8.1-6.9c-4.6-20.7-9.5-41.3-14.4-61.9
		c-6.6-27.5-13.5-54.9-19.9-82.3c-6.7-28.5-13-57.1-19.5-85.6c-0.3-1.3-1.3-2.5-2.6-5c-33.5,68.3-66.4,135.4-99.9,203.8
		c-33.5-68.4-66.4-135.5-99.3-202.6c-2.3,2.2-3,3.9-3.4,5.6c-6,25.7-11.8,51.4-17.9,77C174,462,162,512.3,150.4,562.5
		c-1.3,5.5-3.6,7.3-9.3,7.2c-18.9-0.4-37.7-0.1-56.6-0.1c-2.9,0-5.8,0-9.3,0c0.7-3.7,1.2-6.4,1.8-9c16.8-73.9,33.6-147.7,50.4-221.5
		c8.2-36,16.5-72,24.8-108C152.9,228.1,153.8,225.2,154.5,222.2z"/>
</g>
</svg>
